<?xml version="1.0" encoding="utf-8"?>
<!-- Generator: Adobe Illustrator 26.1.0, SVG Export Plug-In . SVG Version: 6.00 Build 0)  -->
<svg version="1.1" id="Layer_1" xmlns="http://www.w3.org/2000/svg" xmlns:xlink="http://www.w3.org/1999/xlink" x="0px" y="0px"
	 viewBox="0 0 1024 1024" style="enable-background:new 0 0 1024 1024;" xml:space="preserve">
<style type="text/css">
	.st0{display:none;fill:#EFF1F3;}
	.st1{fill:#142634;}
	.st2{fill:#152635;}
	.st3{fill:#142534;}
	.st4{fill:#F7F9FA;}
	.st5{fill:#F8F9FA;}
	.st6{fill:#152634;}
	.st7{fill:#162735;}
	.st8{fill:#152735;}
	.st9{fill:#172836;}
	.st10{fill:#162736;}
	.st11{fill:#172938;}
	.st12{fill:#172735;}
	.st13{fill:#10212C;}
	.st14{fill:#152A39;}
	.st15{fill:#152A38;}
	.st16{fill:#0A1B22;}
	.st17{fill:#0C1725;}
	.st18{fill:#222F3A;}
	.st19{fill:#192933;}
	.st20{fill:#EBF4FA;}
	.st21{fill:#101D27;}
	.st22{fill:#0E212D;}
	.st23{fill:#1C2D3A;}
	.st24{fill:#22303A;}
	.st25{fill:#13212B;}
	.st26{fill:#E8EEF2;}
	.st27{fill:#12222D;}
	.st28{fill:#242E36;}
	.st29{fill:#1E2D3B;}
	.st30{fill:#212C39;}
	.st31{fill:#1C2D3B;}
	.st32{fill:#EAF0F3;}
	.st33{fill:#161F28;}
	.st34{fill:#0E1E28;}
	.st35{fill:#0F1F29;}
	.st36{fill:#E8F0F7;}
	.st37{fill:#E6EEF5;}
	.st38{fill:#EDF3F3;}
	.st39{fill:#132029;}
	.st40{fill:#E6F0F4;}
	.st41{fill:#112029;}
	.st42{fill:#1E2E38;}
	.st43{fill:#101E26;}
</style>
<path class="st0" d="M4.8,33.9c337.9,0,675.8,0,1024,0c0,337.9,0,675.8,0,1024c-337.9,0-675.8,0-1024,0C4.8,720,4.8,382,4.8,33.9z"
	/>
<path class="st1" d="M669,173c1.5,0.6,3,1.2,4.5,1.8c34,14,65.2,35.6,93,59.4c2.2,1.9,4.5,3.8,6.8,5.5c0.8,0.6,0.8,0.6,1.6,1.3
	c0,0.7,0,1.3,0,2c0.6,0.2,1.1,0.5,1.7,0.7c2.7,1.5,4.6,3.3,6.8,5.6c0.9,0.9,1.7,1.7,2.6,2.6c0.9,0.9,1.8,1.8,2.7,2.7
	c0.9,0.9,1.8,1.8,2.7,2.7c5,5.1,9.9,10.3,14.5,15.7c0.8,1,1.7,1.9,2.6,2.9c15.6,18.1,29.3,37.6,41.4,58.2c1,1.8,2.1,3.5,3.2,5.2
	c18.2,30.2,30.6,66.2,37.9,100.6c0.3,1.2,0.3,1.2,0.5,2.4c2.1,9.6,3.8,19.2,5.2,29c0.1,0.9,0.2,1.7,0.4,2.6
	c2,14.9,2.2,29.9,2.2,44.9c0,1.1,0,2.1,0,3.2c0,18.1-0.8,35.9-3.3,53.9c-0.1,1-0.3,2.1-0.4,3.1c-5.3,37.5-17.3,74.8-33.6,108.9
	c-0.4,0.9-0.8,1.8-1.3,2.7c-13.7,28.9-31.9,56.9-53.7,80.3c-1.1,1.3-2.2,2.5-3.3,3.8c-10.2,11.7-20.7,23.2-32.9,32.9
	c-2.7,2.2-5.2,4.4-7.7,6.8c-15.3,13.9-33.3,25-51.1,35.5c-0.7,0.4-1.3,0.8-2,1.2c-31.7,18.8-66.4,31.7-102,40.8
	c-0.9,0.2-1.7,0.5-2.6,0.7c-16.3,4.2-32.7,6.4-49.4,8.3c-1,0.1-2.1,0.2-3.1,0.4C457.1,912.2,356.1,879.4,281,820
	c-7.1-5.7-13.9-11.7-20.7-17.9c-1.6-1.4-3.1-2.8-4.7-4.2c-4.2-3.6-8-7.3-11.6-11.6c-2.2-2.5-4.5-4.9-6.7-7.4
	c-14.8-15.7-27.7-32.9-39.3-51c-0.7-1-1.3-2-2-3.1c-14.3-22.6-26.1-46.8-35-71.9c-0.5-1.3-1-2.6-1.5-3.9
	c-13.3-35.5-21.2-75.1-21.5-113.1c0-1.3,0-2.6-0.1-3.9c-0.9-65,12.2-126.2,42.1-184.1c0.3-0.6,0.6-1.2,1-1.9
	c16.1-31.4,37.4-61.1,62.7-85.8c1.8-1.8,3.4-3.6,5-5.6c2.4-2.9,5-5.2,7.8-7.6c2.5-2.2,4.9-4.5,7.3-6.7c6.9-6.5,14-12.4,21.5-18.1
	c1.6-1.3,3.3-2.5,4.9-3.8c14.3-11.3,29.9-20.6,45.8-29.5c0.8-0.5,1.6-0.9,2.5-1.4c33.1-18.3,69.5-31.4,106.5-38.6
	c1.4-0.3,1.4-0.3,2.9-0.6c6.7-1.3,13.4-2.4,20.1-3.4c1.5-0.2,1.5-0.2,2.9-0.5C538.5,134.4,606.5,147.1,669,173z M469,180
	c-1.8,0.3-1.8,0.3-3.7,0.6c-34.6,5.8-67.1,16.4-98.8,31.6c-1.2,0.6-2.3,1.1-3.5,1.7c-20.2,9.9-39.5,23-57,37.1
	c-1,0.8-1.9,1.5-2.9,2.3c-5.4,4.4-10.7,8.9-15.8,13.6c-2,1.8-4.1,3.6-6.1,5.4c-8.7,7.6-16.7,15.8-23.9,24.9
	c-2.1,2.6-4.3,5.2-6.5,7.7c-27.5,31.3-48.6,69.7-61.8,109.2c-0.3,0.9-0.6,1.8-0.9,2.7c-5.7,16.8-9,33.9-12.1,51.3
	c-0.2,1.1-0.4,2.1-0.6,3.2c-5.3,31-5.4,63.8-0.4,94.8c0.3,2,0.6,4,0.9,5.9c8.7,56.8,30.3,112.7,66.1,158.1c0.9,1.1,1.7,2.2,2.6,3.4
	c5.6,7.3,11.4,14.1,17.7,20.7c2.2,2.3,4.3,4.7,6.3,7.1c3.4,3.9,7.1,7.2,11,10.6c2,1.8,3.9,3.7,5.8,5.7c4.5,4.6,9.5,8.5,14.6,12.5
	c1.5,1.2,1.5,1.2,3,2.5c15.2,12.4,31.9,23.4,49.2,32.6c1.8,1,3.5,1.9,5.3,2.9c35.9,20.1,77.8,32.6,118.5,38c0.9,0.1,1.8,0.2,2.7,0.4
	c41,5.1,83.4,2.3,123.3-8.4c1-0.3,2.1-0.5,3.2-0.8c47.6-12.4,90.6-34.3,129.1-64.8c1.2-0.9,2.4-1.9,3.6-2.8
	c16.1-12.5,30.9-27,44.1-42.6c1.2-1.4,1.2-1.4,2.5-2.9c6.3-7.4,12-15.1,17.5-23.1c0.6-0.9,0.6-0.9,1.2-1.8
	c19.8-28.8,35.4-59.8,45.8-93.2c0.3-0.9,0.5-1.7,0.8-2.6c17.5-56.1,20.5-115.9,8.2-173.4c-0.3-1.5-0.3-1.5-0.6-3
	c-8.3-38.5-23.7-76.5-46-109c-1.4-2-2.7-4-4.1-6.1c-8.1-12.1-16.8-23.5-26.8-34.2c-1.9-2.1-3.8-4.2-5.7-6.4
	c-4.2-4.8-8.6-9.2-13-13.7c-1.3-1.3-1.3-1.3-2.6-2.5c-5-5-10-9.7-15.6-14c-2.4-1.9-4.8-3.9-7.1-5.9c-41.8-36.3-97.3-62.2-151.6-72.1
	c-0.7-0.1-1.4-0.3-2.1-0.4C545.5,175.8,506.5,173.8,469,180z"/>
<path class="st2" d="M482.2,306.3c3.3,4.9,2.3,11,2.3,16.8c0.2,10.5,3.3,19.1,10.5,26.9c7.3,6.8,15.2,9.7,25.2,9.3
	c8.2-1,16-4.4,21.8-10.3c7.8-10.5,8.3-19.9,8.4-32.5c0-1.6,0-1.6,0.1-3.2c0-0.9,0-1.9,0-2.9c0.5-2.4,0.5-2.4,2.3-4.2
	c7.5-4.1,19.8-0.1,27.9,1.3c0.8,0.1,1.6,0.3,2.4,0.4c14.7,2.5,29,6,43.4,10.1c6,1.7,12,3.3,18,5c1.1,0.3,2.1,0.6,3.2,0.9
	c9.3,2.5,17.9,3.4,27.6,3.4c1.1,0,2.1,0,3.2,0.1c9.1,0,16.8-1.9,25.3-5c5-1.7,9.1-2.3,14.1-0.1c2.9,2.3,4,4.4,4.5,8.1
	c0.1,7-1.1,11.2-5.8,16.3c-4.3,4-9,6.3-14.5,8.4c-1,0.4-1.9,0.7-2.9,1.1c-4.7,1.7-8.7,3-13.8,2.9c-0.8,0-1.6,0-2.4,0
	c-0.6,0-1.2,0-1.9,0c0.5,1.1,1,2.1,1.5,3.2c27.1,60.1,27.1,60.1,34.3,77.3c2,4.8,4.2,9.5,6.4,14.2c4.2,9,8.3,18.1,12.3,27.1
	c1.3,2.9,2.5,5.7,3.8,8.6c14.2,32.1,14.2,32.1,8.2,50.9c-8.3,20.9-23.7,39-44.4,48.3c-23.2,9.6-46.2,9.8-69.5,0.5
	c-6.5-3-12.1-6.7-17.6-11.2c-0.7-0.6-1.4-1.1-2.2-1.7c-12.7-10.5-24.1-27.7-26.8-44.3c-0.8-9.1,0.4-15.7,4.4-23.8c1-2.2,2-4.4,3-6.5
	c0.6-1.2,1.1-2.4,1.7-3.6c2.1-4.5,4.1-9,6.2-13.5c0.4-0.8,0.7-1.7,1.1-2.5c0.8-1.7,1.5-3.4,2.3-5.1c1.9-4.3,3.9-8.7,5.8-13
	c8.3-18.4,16.6-36.9,24.7-55.4c2.4-5.4,4.8-10.7,7.3-16c4.9-10.3,9.1-20.9,13.4-31.4c-10.8-3-21.7-5.6-32.7-8.1
	c-0.8-0.2-1.6-0.3-2.4-0.5c-15.9-3.5-31.7-6.4-47.9-7.4c-0.2,0.6-0.3,1.2-0.5,1.8c-4.6,16.7-13.7,28.9-28.8,37.5
	c-3,1.6-5.2,2.7-8.7,2.7c0,77.2,0,154.4,0,234c6.9,0,13.9,0,21,0c4.9,5.4,6.3,8.2,8,15c-31.3,0-62.7,0-95,0c3.3-9.9,3.3-9.9,9-15
	c6.6,0,13.2,0,20,0c0-77.2,0-154.4,0-234c-1.6-0.3-3.3-0.7-5-1c-14.7-5.9-24-17.7-30.2-31.8c-2.8-6.6-2.8-6.6-2.8-9.2
	c-24.8,2.5-48.9,7.4-73.1,13.2c-1,0.2-2,0.5-3.1,0.7c-0.9,0.2-1.8,0.4-2.7,0.6C380,360,380,360,378,360c3.8,9.2,7.7,18.3,11.8,27.4
	c0.3,0.7,0.6,1.4,1,2.2c9.1,20.7,18.4,41.4,27.7,62c2.6,5.8,5.2,11.7,7.9,17.5c1.3,2.8,2.5,5.6,3.8,8.5c1.8,4.1,3.6,8.1,5.4,12.2
	c0.7,1.6,1.4,3.1,2.1,4.7c13.8,30.8,13.8,30.8,8.8,44.1c-8.8,21.2-23.5,41-45.2,50.1c-23.4,9.3-45.3,10.1-68.6,0.2
	c-6.9-3.1-12.8-7-18.6-11.8c-1.1-0.9-1.1-0.9-2.3-1.8c-14-11.4-24.8-30.4-27.1-48.2c-0.7-11.6,3.7-20.6,8.4-31.1
	c1-2.4,2.1-4.7,3.1-7.1c1.7-3.8,3.4-7.5,5.1-11.3c3.2-7,6.2-14,9.2-21c2.5-6.1,5.2-12.1,8.1-18.1c2.1-4.5,4.1-9,6.1-13.5
	c2.2-5.2,4.5-10.3,6.9-15.4c7.5-16,14.5-32.4,21.6-48.6c-1.2-0.3-2.5-0.6-3.8-0.9c-13.5-3.3-26.9-6.9-34.7-19.4
	c-1-4.8-1.9-10.1,0.5-14.6c2.8-3.5,4.7-4.9,9.1-5.4c5.8,0,11.1,2.3,16.4,4.2c6.4,2.3,12.1,2.4,19,2.5c1.5,0,1.5,0,3.1,0.1
	c15.8,0.1,31.1-4.7,46.1-9.1C472,300.2,472,300.2,482.2,306.3z"/>
<path class="st3" d="M480.6,692.4c3.5,0.1,7,0,10.5,0c5.9,0,11.8,0,17.7,0.2c6.8,0.1,13.5,0.1,20.3,0.1c6.6-0.1,13.1,0,19.7,0
	c2.8,0,5.5,0,8.3,0c22.5-0.2,22.5-0.2,29.8,5.8c3.3,3.3,6,6.8,8.7,10.6c6.8,9.1,17.7,15.3,27.3,21c0.8,0.5,1.6,1,2.4,1.4
	c1.1,0.6,1.1,0.6,2.2,1.3c0.5,0.4,1,0.8,1.5,1.2c0,0.7,0,1.3,0,2c-6.9,2.8-13.1,3.4-20.5,3.5c-26.6,0.8-51.7,7.6-70.5,27.5
	c-9.8,11.2-15.1,24.8-19,39c-0.7,0-1.3,0-2,0c-0.2-0.6-0.4-1.3-0.7-1.9c-8.5-24-19.2-42.6-42.7-54.3c-16.7-8-33.3-9.8-51.6-10.2
	c-6-0.2-10.5-1.2-16-3.6c1.4-4.3,4.7-5.5,8.4-7.7c8.6-5.1,16.5-10.6,22.9-18.4C450.2,694.4,460.9,692,480.6,692.4z"/>
<path class="st4" d="M365,394c2.6,3.2,4.2,6.4,5.9,10.1c0.3,0.6,0.5,1.2,0.8,1.8c0.9,2,1.8,3.9,2.6,5.9c0.6,1.4,1.2,2.8,1.9,4.2
	c1.3,2.9,2.6,5.8,3.9,8.7c1.9,4.1,3.7,8.3,5.6,12.4c0.4,1,0.4,1,0.9,2c0.6,1.3,1.2,2.6,1.8,3.9c4.9,10.8,9.7,21.6,14.4,32.4
	c4.9,11.2,10,22.3,15.1,33.5c0.9,1.9,1.8,3.9,2.6,5.8c1,2.1,1.9,4.2,2.9,6.3c0.4,0.8,0.7,1.6,1.1,2.4c0.5,1,0.5,1,0.9,2
	c0.6,1.7,0.6,1.7,0.6,4.7c-39.9,0-79.9,0-121,0c0.9-4.7,2.4-8.5,4.4-12.8c0.3-0.8,0.7-1.5,1-2.3c1.1-2.5,2.2-4.9,3.4-7.4
	c0.8-1.7,1.6-3.5,2.3-5.2c1.6-3.5,3.1-7,4.7-10.4c3-6.6,6-13.3,9-20c1-2.3,2.1-4.7,3.1-7c2.7-5.9,5.3-11.9,8-17.8
	c1.1-2.4,2.2-4.8,3.2-7.2c2.5-5.6,5.1-11.3,7.6-17c1.2-2.7,2.4-5.3,3.6-8c0.6-1.3,1.1-2.5,1.7-3.8c0.8-1.8,1.6-3.5,2.4-5.3
	c0.4-1,0.9-2,1.4-3C362.1,399.9,363.5,396.9,365,394z"/>
<path class="st5" d="M669,395c3,2.6,4.3,5.5,5.9,9.1c0.7,1.6,0.7,1.6,1.5,3.3c0.8,1.8,1.6,3.7,2.4,5.5c2.2,4.9,4.4,9.8,6.6,14.7
	c0.3,0.7,0.6,1.4,0.9,2.1c1.3,2.9,2.6,5.7,3.9,8.6c3.8,8.4,7.6,16.8,11.3,25.2c2.4,5.5,4.9,11,7.5,16.5c0.9,2,1.9,4.1,2.8,6.1
	c1.7,3.7,3.4,7.5,5.2,11.2c1.7,3.8,3.5,7.5,5.2,11.3c0.7,1.5,1.4,3,2.1,4.5c1,2.1,1.9,4.2,2.9,6.3c0.3,0.6,0.6,1.3,0.9,1.9
	c1.5,3.3,2,5.2,2,8.9c-39.9,0-79.9,0-121,0c0.7-3.5,1.2-5.8,2.7-9c0.5-1.1,0.5-1.1,1-2.3c0.6-1.2,0.6-1.2,1.1-2.4
	c0.4-0.8,0.8-1.7,1.2-2.6c1.3-2.8,2.5-5.5,3.8-8.3c0.9-1.9,1.7-3.8,2.6-5.8c1.3-2.9,2.6-5.8,3.9-8.6c3.5-7.7,7-15.5,10.5-23.3
	c4.7-10.5,9.4-20.9,14.1-31.4c3.2-7.1,6.4-14.2,9.6-21.4c0.3-0.6,0.6-1.3,0.9-1.9c1.3-3,2.7-6,4-9c0.5-1.1,0.9-2.1,1.4-3.2
	c0.4-0.9,0.8-1.9,1.2-2.8C668,396,668,396,669,395z"/>
<path class="st1" d="M534.4,224.2c6.6,4.6,11.6,10.9,13.6,18.8c1.3,10.3,0,18.4-6,27c-0.8,0.6-1.7,1.3-2.6,1.9
	c-3.7,4.7-3.1,9.3-3,15.1c0,1.2,0,2.3,0,3.6c0,3.8,0,7.5,0,11.3c0,3.7,0,7.5,0,11.2c0,2.3,0,4.7,0,7c0,7.6-0.7,12.7-5.7,18.6
	c-5.3,4.4-9.5,5.8-16.3,5.6c-5-0.7-7.9-3.7-11.1-7.3c-3.3-4.6-4.5-8-4.5-13.7c0-1.7,0-1.7,0-3.3c0-1.8,0-1.8,0-3.6
	c0-1.2,0-2.4,0-3.7c0-3.9,0-7.7,0.1-11.6c0-2.6,0-5.3,0-7.9c0-6.4,0.1-12.9,0.1-19.3c-0.9-0.4-0.9-0.4-1.9-0.9
	c-2.5-1.3-3.6-2.6-5.2-4.9c-0.5-0.7-1-1.3-1.5-2c-4.4-7.3-4.6-16.5-2.8-24.7c3.2-9,9.2-15.5,17.5-19.9
	C514.9,217.7,525.3,219,534.4,224.2z"/>
<path class="st6" d="M776,562c3,1,3,1,4.3,3.2c10.1,24.2,8.2,48.5-0.3,72.8c0.5-0.5,1-0.9,1.5-1.4c10.8-9.9,30.2-23,45.5-22.6
	c1.2,14.4-4.4,30.2-13.7,41.3c-2.7,3-5.5,5.9-8.3,8.7c-0.6,0.6-1.1,1.2-1.7,1.8c-9.8,9.6-27.3,16.3-40.7,16.3
	c-1.5,0-3.1-0.1-4.6-0.1c0-0.6,0-1.3,0-1.9c0.3-14.1,0.3-27.3-3.9-40.8c-5.4-17.9-3.7-40.6,4.9-57.2c2.2-3.5,4.5-6.8,7-10
	c0.5-0.6,0.9-1.2,1.4-1.8C769.9,567,772.6,564.3,776,562z"/>
<path class="st7" d="M257,562c8.7,2.4,14.7,11.6,19,19c3.8,7.9,7.2,16.3,8,25c0.1,1.1,0.2,2.3,0.4,3.4c0.7,11.5-1.8,22.3-4.4,33.4
	c-2.9,13.2-3.9,25.7-3,39.2c-6,0.3-11.1-0.2-16.8-2.1c-0.7-0.2-1.4-0.5-2.1-0.7c-18.6-6.3-34.2-18.3-43.1-36.2
	c-3.5-8.1-6.2-15.5-6.1-24.4c0-0.9,0-1.7,0-2.6c0-0.7,0-1.3,0-2c17.1,1.6,32.2,11.1,45,22c0.1-2.2,0.1-2.2-1.1-5.1
	c-7.1-20.5-7.1-46.2,2.3-65.9C255.8,564,256.4,563,257,562z"/>
<path class="st2" d="M295,636c10.3,3.4,16.5,13.4,21.3,22.6c8.2,16.7,9.1,33,8.7,51.2c0,2.9-0.1,5.7-0.1,8.6c0,1.8,0,3.5-0.1,5.3
	c-0.1,5.2,0.5,9.9,1.7,15c0.5,2.5,0.5,4.8,0.4,7.3c-24.8,0.7-46-3.8-64.8-21.2c-7.5-8.1-17.8-21.3-18.4-32.6
	c0.1-0.7,0.1-1.4,0.2-2.1c15.9,1.6,30.1,4.7,44.7,11.5c2.5,1.1,4.7,2,7.3,2.5c-0.4-1-0.8-2-1.2-3.1c-8-20.2-9.8-41.5-1.1-62
	C294.3,637.5,294.3,637.5,295,636z"/>
<path class="st8" d="M739.1,636.8c3.2,1.9,3.7,5.3,4.6,8.7c0.3,1,0.3,1,0.6,2.1c5.5,18.7,3.5,39-5.3,56.3c-0.3,0.7-0.7,1.3-1,2
	c1.2-0.6,2.3-1.2,3.5-1.8c13.9-6.9,29.6-13.5,45.4-13.3c1.2,0,1.2,0,2.4,0c0.6,0,1.2,0,1.8,0c-1.2,14.3-10.9,27.3-21,37
	c-3.5,2.9-7.2,5.5-11,8c-0.6,0.4-1.2,0.8-1.8,1.2c-13,8.3-30.2,9.5-45.2,8.8c-1-0.3-2-0.7-3-1c0.2-1.3,0.3-2.5,0.5-3.8
	c0.6-5.4,0.7-10.9,0.8-16.3c0-2.1,0.1-4.3,0.1-6.4c0-3.3,0.1-6.7,0.1-10c0.3-25.4,2.3-46.8,20.4-66.4
	C736,637.1,736,637.1,739.1,636.8z"/>
<path class="st7" d="M339,700c11.9,3.1,20.8,12.2,27.2,22.3c7.7,13.2,9.7,26.4,11,41.3c0.4,4.9,1.2,9.6,2.4,14.4
	c0.5,2.4,0.6,4.6,0.4,7c-18.2,7-35.2,9.8-54,3c-11.2-5-21.7-13.4-28-24c0-1,0-2,0-3c6.4-1.7,12.3-2.3,18.8-2.2c1.3,0,1.3,0,2.7,0
	c2.8,0,5.7,0,8.5,0.1c1.9,0,3.9,0,5.8,0c4.7,0,9.4,0.1,14.1,0.1c-0.5-0.8-1-1.6-1.5-2.5c-0.6-1.1-1.3-2.1-1.9-3.2
	c-0.6-1.1-1.3-2.1-1.9-3.2c-2.2-3.9-3.6-7.8-4.7-12.1c-0.3-1.2-0.7-2.4-1.1-3.6c-1.2-4.9-1.3-9.8-1.3-14.8c0-0.9,0-1.8,0-2.7
	C335.6,710.7,336.7,705.7,339,700z"/>
<path class="st7" d="M696,700c4.9,14.8,5.3,33.4-1.7,47.6c-1.2,2.3-2.5,4.5-3.8,6.7c-1.6,2.6-1.6,2.6-2.5,5.6c1-0.2,1-0.2,2-0.5
	c3.5-0.6,7-0.7,10.6-0.7c0.7,0,1.5,0,2.2,0c1.5,0,3.1,0,4.6,0c2.3,0,4.6,0,7,0c7.4,0,14.5,0,21.6,2.2c0.7,0.7,1.3,1.3,2,2
	c-12,16.1-25.1,25.3-45,29c-13,1.5-26-2.3-38-7c0.1-0.7,0.3-1.4,0.4-2.1c1.6-9.3,2.5-18.7,3.3-28.1c1.7-18.7,9-34.4,23.3-46.8
	C692.6,700,692.6,700,696,700z"/>
<path class="st9" d="M474,649c28.4,0,56.8,0,86,0c10,20.1,10,20.1,9,31c-2,2-4.9,1.1-7.5,1.1c-0.9,0-1.9,0-2.8,0c-1.5,0-1.5,0-3,0
	c-3.3,0-6.5,0-9.8,0c-2.3,0-4.5,0-6.8,0c-4.7,0-9.5,0-14.2,0c-6.1,0-12.2,0-18.3,0c-4.7,0-9.3,0-14,0c-2.2,0-4.5,0-6.7,0
	c-3.1,0-6.3,0-9.4,0c-0.9,0-1.9,0-2.8,0c-6.4,0-6.4,0-7.5-1.1c-0.4-6,0.5-10.9,2.3-16.6c0.2-0.7,0.4-1.4,0.6-2.2
	C470.3,656.8,471.9,653.2,474,649z"/>
<path class="st2" d="M445,776c16.2-0.2,28.7,8.3,40,19c0.8,0.7,1.5,1.5,2.3,2.2c3.2,3.1,6.2,6.4,9.1,9.8c3.8,4.4,8.1,8.2,12.6,12
	c-3.8,9.4-18,15.4-26.9,19.2c-16,6.2-36.1,5.9-52.1-0.2c-4.5-2.1-8.8-4.5-13-7c1-3,1-3,3.9-4.5c1.3-0.5,2.5-1,3.8-1.5
	c0.7-0.3,1.4-0.5,2.1-0.8c11.8-4.4,23.8-5.9,36.2-7.2c-0.6-0.5-1.1-1-1.7-1.5c-6.8-6.3-15-15.9-16.3-25.5c-0.1-2.4-0.1-4.8-0.1-7.2
	c0-1.3,0-2.5,0-3.8C445,778,445,777,445,776z"/>
<path class="st6" d="M590,776c1,13.3-2.3,23.9-11,34c-0.7,0.9-1.4,1.9-2.2,2.8c-1.5,1.8-3.1,3.5-4.8,5.2c0.6-0.1,1.2-0.1,1.9-0.2
	c15-0.7,31.3,3.3,44.1,11.2c-1,3-1,3-3.4,4.5c-18.5,8.9-39.1,12.2-59.1,5.9c-11.1-4.4-20.1-9.8-28.5-18.4c1.1-3.3,1.9-4,4.6-6.2
	c4.4-3.8,8.3-7.9,12.2-12.2C555.7,789.8,571.1,775.1,590,776z"/>
<path class="st2" d="M388,749c12.9,0.4,22.2,7.1,31,16c0.6,0.6,1.1,1.1,1.7,1.7c9.5,10.1,14.3,25.8,16.3,39.3
	c-21.2,9.5-43.3,17.8-66.4,9.2c-3.8-1.8-7.2-3.8-10.6-6.2c1-3,1-3,3.3-4.5c12-5.9,25.2-10.8,38.7-10.5c-0.4-0.7-0.9-1.3-1.4-2
	C391.4,778,387.5,765.7,388,749z"/>
<path class="st1" d="M647,748c0.4,9.2-0.2,17.2-3,26c-0.3,0.9-0.6,1.7-0.8,2.6c-2.4,6.5-6,11.9-10.2,17.4c1,0,1,0,2.1,0
	c7.7,0.2,14.4,1.9,21.6,4.3c0.9,0.3,1.7,0.6,2.6,0.9c5.9,2,11.2,4.7,16.6,7.9c0,0.7,0,1.3,0,2c-1.8,1-3.5,1.9-5.3,2.8
	c-1,0.5-2,1-3,1.6c-8.5,4-17.1,5.2-26.4,5.1c-1,0-2.1,0-3.2,0c-8.9-0.2-15.9-1.8-24.1-5.5c-0.7-0.3-1.4-0.6-2.1-0.9
	c-4.4-1.9-8.6-4-12.9-6.1c0.6-6,1.8-11.3,3.8-16.9c0.3-0.8,0.5-1.6,0.8-2.4c5-14.3,13.9-26.2,27.4-33.7C642.1,748,642.1,748,647,748
	z"/>
<path class="st8" d="M841,524c5.1,16-0.5,37.2-7.3,51.9c-2.8,5.1-6,9.6-9.7,14.1c-0.7,0.9-1.4,1.7-2.1,2.6
	c-6.7,7.8-14,14.2-23.9,17.4c-0.8-27.6-1.1-51,19.1-72.4C822.9,532.3,832.8,524,841,524z"/>
<path class="st2" d="M195,524c13,2,23.5,10.8,31.4,21.1c7.3,11.1,11.8,23.9,11.7,37.2c0,0.8,0,1.6,0,2.4c0,2.5,0,5.1,0,7.6
	c0,1.7,0,3.4,0,5.1c0,4.2,0,8.4,0,12.6c-15.9-6-28.5-21.4-36-36c-1.9-4.6-3.6-9.2-5-14c-0.4-1.2-0.7-2.3-1.1-3.5
	c-1.5-6.2-1.1-12.6-1-19c0-1.3,0-2.6,0-3.9C194.9,530.4,195,527.2,195,524z"/>
<path class="st10" d="M821,432c3,1,3,1,4.9,4.3c0.7,1.4,1.4,2.8,2.1,4.2c0.4,0.7,0.7,1.5,1.1,2.2c2.4,5,4.6,9.9,5.9,15.3
	c0.2,0.8,0.4,1.6,0.6,2.4c3.9,17.9,1.2,35.9-8.6,51.6c-6.6,8.9-6.6,8.9-12,10c-1.3-4.1-2.5-8.2-3.7-12.3c-0.4-1.4-0.8-2.8-1.3-4.2
	c-6.5-21.3-9.2-41.2,1.4-61.8C814.1,439.1,816.9,435.5,821,432z"/>
<path class="st8" d="M213,432c3.5,0.6,4.8,1.5,6.9,4.3c8,11.3,12.3,22.9,12.4,36.7c0,0.7,0,1.4,0,2.2c-0.2,11.5-3.5,22.1-7,33
	c-0.4,1.3-0.8,2.7-1.3,4c-1,3.3-2.1,6.5-3.1,9.8c-8.5-3.1-12.6-10.7-16.4-18.6c-7.1-15.7-7.1-35.6-1.3-51.7
	C206.2,445,209.5,438.5,213,432z"/>
<path class="st9" d="M782,480c10.6,4.9,15,15.5,19.1,25.8c5,15.7,1.3,31.6-5.1,46.2c-5-0.7-7-4-9.9-7.8c-10-15-13.2-31-10.6-48.7
	C776.9,489.7,778.8,484.9,782,480z"/>
<path class="st11" d="M255,480c0.6,1.5,1.3,3,1.9,4.4c0.3,0.8,0.7,1.6,1.1,2.5c5.9,16.9,4.1,33.2-3.4,49.1
	c-3.2,6.2-7.1,11.6-11.6,16.9c-7-6.5-9-14.2-9.5-23.5c-0.1-2.4-0.1-4.8-0.1-7.2c0-1.1,0-2.3,0-3.5c0.2-14.9,6.3-27.1,16.8-37.5
	C252,480,252,480,255,480z"/>
<path class="st12" d="M252,394c4.9,2.3,7.7,5.2,10,10c0.8,4.9,0.7,9.4-1.6,13.9c-3.2,4.2-6.4,6.5-11.4,8.1c-5.3,0.4-8.5-0.2-13-3
	c-3.5-3-5.7-5.7-6.3-10.3c-0.1-6.2,0.6-9.7,4.3-14.7C239.2,392.9,245.2,393.1,252,394z"/>
<path class="st8" d="M797,394c4,2,6.7,4.2,9,8c1.5,4.6,1.9,9.3,0.3,14c-2.3,4.4-4.9,6.9-9.3,9c-4.6,1.2-8.1,1.2-12.8-0.1
	c-4.2-2.5-7.1-5.2-9.1-9.8c-0.6-7-0.7-11.5,3.8-17.1C784.2,393,790.2,393.1,797,394z"/>
<path class="st13" d="M535,387c0.3,0,0.7,0,1,0c0,27.5,0,55,0.1,82.5c0,12.8,0,25.5,0,38.3c0,11.1,0,22.3,0,33.4
	c0,5.9,0,11.8,0,17.7c0,5.6,0,11.1,0,16.7c0,2,0,4.1,0,6.1c0,11.5-0.2,22.9-1.1,34.4c-0.3,0-0.7,0-1,0c-0.2-28.7-0.3-57.4-0.5-86
	c-0.1-13.3-0.1-26.6-0.2-39.9c-0.1-11.6-0.1-23.2-0.2-34.8c0-6.1-0.1-12.3-0.1-18.4c0-5.8-0.1-11.6-0.1-17.4c0-2.1,0-4.2,0-6.4
	c0-2.9,0-5.8,0-8.7c0-0.8,0-1.7,0-2.5C532.8,396.6,533.5,392.1,535,387z"/>
<path class="st14" d="M271,344c3.5,2.8,3.9,4.5,4.6,8.9c-0.2,3.3-0.8,4.4-2.6,7.5c-3.2,2.7-4.9,3.7-9,3.8c-2.8-0.4-4.8-1.6-6.9-3.6
	c-2.2-3.4-2.7-6.8-2.1-10.7C258.8,342.9,263.7,342.2,271,344z"/>
<path class="st15" d="M776,344c2.4,1.9,3.7,3.3,5,6c0.4,4.2,0.5,6.3-1.9,9.9c-2.9,2.9-4.5,3.3-8.5,3.4c-3.4,0-4.3-0.1-7.1-2.2
	c-2.3-3.3-3-5.9-3-10c0.8-3.4,2.6-5.1,5.4-7.1C769.7,342.2,772,342.8,776,344z"/>
<path class="st16" d="M535,387c0.3,0,0.7,0,1,0c0,59.7,0,119.5,0,181c-0.3,0-0.7,0-1,0c0-0.8,0-1.6,0-2.5
	c-0.1-19.8-0.2-39.6-0.3-59.4c-0.1-9.6-0.1-19.2-0.2-28.7c0-8.4-0.1-16.7-0.1-25.1c0-4.4-0.1-8.8-0.1-13.3c0-4.2,0-8.3-0.1-12.5
	c0-1.5,0-3,0-4.6c0-8.1-0.3-16.1-1.1-24.2C532.9,393.8,533.8,390.7,535,387z"/>
<path class="st17" d="M500,279c0.3,0,0.7,0,1,0c0,0.6,0,1.2,0,1.8c0.1,6.3,0.2,12.7,0.3,19c0,2.4,0.1,4.7,0.1,7.1
	c0.1,3.4,0.1,6.8,0.2,10.2c0,1.1,0,2.1,0.1,3.2c0,1,0,2,0.1,3c0,0.9,0,1.7,0,2.6c0,2.2,0,2.2,1.2,4.1c-0.7,1-1.3,2-2,3
	c-1-1-1-1-1.1-3.1c0-0.9,0-1.9,0-2.8c0-1.1,0-2.1,0-3.2c0-1.2,0-2.3,0-3.5c0-1.2,0-2.3,0-3.6c0-3.8,0-7.5,0-11.3c0-2.5,0-5.1,0-7.6
	C500,291.5,500,285.3,500,279z"/>
<path class="st18" d="M295,636c4.9,1.8,4.9,1.8,6,4c-2,0.3-4,0.7-6,1c0.3,1.3,0.3,1.3,0.7,2.7c0.4,3.9-0.2,5.3-2.7,8.3c-1,0-2,0-3,0
	c0.5-1.9,0.9-3.8,1.4-5.8c0.4-1.6,0.4-1.6,0.8-3.2C292.9,640.4,293.7,638.3,295,636z"/>
<path class="st19" d="M779,398c1.3,0.7,2.6,1.3,4,2c0,3.2-0.4,4.4-2,7c-3,2-3,2-5,2c-0.3,1.3-0.7,2.6-1,4
	C774.5,406.5,775.4,403.4,779,398z"/>
<path class="st20" d="M704,755c0,0.3,0,0.7,0,1c0.9,0,1.8,0,2.7-0.1c1.2,0,2.4,0,3.6-0.1c1.8,0,1.8,0,3.6-0.1
	c3.1,0.2,3.1,0.2,6.1,2.2c-8.6,0.3-17.2,0.7-26,1c0-0.7,0-1.3,0-2c1.3,0,2.6,0,4,0c0-0.7,0-1.3,0-2C701.8,753.9,701.8,753.9,704,755
	z"/>
<path class="st21" d="M445,776c2.5,0.5,2.5,0.5,5,1c-1,0.5-1,0.5-2,1c1.3,0.7,2.6,1.3,4,2c0,0.7,0,1.3,0,2c-1.3,0.3-2.6,0.7-4,1
	c-0.3-0.7-0.7-1.3-1-2c0,2.6,0,5.3,0,8c-0.7-0.3-1.3-0.7-2-1C445,784,445,780.1,445,776z"/>
<path class="st22" d="M548,346c0.7,1.3,1.3,2.6,2,4c-0.6,0.3-1.2,0.5-1.8,0.8c-2.2,1.2-3.5,2.4-5.2,4.2c-0.7-0.7-1.3-1.3-2-2
	c0-1,0-2,0-3c0.9-0.4,0.9-0.4,1.8-0.9C545.2,348,545.2,348,548,346z"/>
<path class="st23" d="M875,642c1,0.3,2,0.7,3,1c1.3,3.8,0.6,5.4-1,9c-2.1,1.4-2.1,1.4-4,2c-0.7-2.3-0.7-2.3-1-5c1.4-1.8,1.4-1.8,3-3
	c-0.3-1-0.7-2-1-3C874.3,642.7,874.7,642.3,875,642z"/>
<path class="st24" d="M412,730c1.4,2.9,0.6,4.9,0,8c-2-0.7-4-1.3-6-2C407.2,732.3,408.6,731.8,412,730z"/>
<path class="st25" d="M217,616c4.2,0.5,6.8,1.2,10,4c-1,0-2,0-3,0c-0.3,0.7-0.7,1.3-1,2c-0.7,0-1.3,0-2,0c0-0.7,0-1.3,0-2
	c-1.3-0.3-2.6-0.7-4-1C217,618,217,617,217,616z"/>
<path class="st26" d="M215,687c2.6,0.7,5.3,1.3,8,2c0.3,1.3,0.7,2.6,1,4c-0.7,0.7-1.3,1.3-2,2c0-1,0-2,0-3c-0.8-0.1-1.6-0.2-2.4-0.2
	c-2.6-0.8-2.6-0.8-3.9-2.8C215.5,688.3,215.2,687.7,215,687z"/>
<path class="st27" d="M252,480c0.3,1.3,0.7,2.6,1,4c0.3,0.7,0.7,1.3,1,2c-0.7,0-1.3,0-2,0c0,0.7,0,1.3,0,2c-3-0.5-3-0.5-6-1
	C248,484.7,250,482.4,252,480z"/>
<path class="st28" d="M212,434c0.3,1.3,0.7,2.6,1,4c-1,0.5-1,0.5-2,1c-0.4,1.3-0.7,2.7-1,4c-0.6,1.3-1.3,2.7-2,4c-0.7,0-1.3,0-2,0
	C207.4,442.2,209.4,438.3,212,434z"/>
<path class="st29" d="M219,437c2.7,2.5,4.6,4.6,6,8c-2.3-0.3-4.7-0.6-7-1c-0.3-0.7-0.7-1.3-1-2c1-1,2-2,3-3c-0.7-0.3-1.3-0.7-2-1
	C218.3,437.7,218.7,437.3,219,437z"/>
<path class="st30" d="M203,484c0.3,0,0.7,0,1,0c1.2,4.9,0.6,8.2-1,13c-1.4-2.3-2-3.6-1.8-6.4c0.2-0.8,0.4-1.6,0.6-2.4
	c0.2-0.8,0.4-1.6,0.6-2.4C202.7,485.2,202.8,484.6,203,484z"/>
<path class="st31" d="M205,496c1,0.3,2,0.7,3,1c-0.3,1.6-0.7,3.3-1,5c-1,0-2,0-3,0c-0.6-1.9-0.6-1.9-1-4
	C203.7,497.3,204.3,496.7,205,496z"/>
<path class="st32" d="M248,713c2.9,0.6,3.9,0.9,6,3c-0.4,2.1-0.4,2.1-1,4c-0.7-1.3-1.3-2.6-2-4c-0.7,0-1.3,0-2,0
	C248.7,715,248.3,714,248,713z"/>
<path class="st33" d="M286,522c0.3,0,0.7,0,1,0c1,6.1,1,6.1,1,8c-0.7,0.7-1.3,1.3-2,2c-1.5-3-1.1-5.7-1-9
	C285.3,522.7,285.7,522.3,286,522z"/>
<path class="st34" d="M474,368c4.8,2.5,4.8,2.5,5.8,5.2c0.1,0.6,0.1,1.2,0.2,1.8c-2.5-1.2-4-2-6-4C474,370,474,369,474,368z"/>
<path class="st35" d="M323,321c1.6,0,3.3,0,5,0c0.3,1,0.7,2,1,3c-0.7,0.7-1.3,1.3-2,2c-2.1-0.4-2.1-0.4-4-1c0.7-0.7,1.3-1.3,2-2
	C324.3,322.3,323.7,321.7,323,321z M321,326c2,1,2,1,2,1L321,326z"/>
<path class="st36" d="M254,744c2.9-0.1,2.9-0.1,6,0c0.7,0.7,1.3,1.3,2,2c-0.7,0-1.3,0-2,0c-0.3,1-0.7,2-1,3
	C257.4,747.3,255.7,745.7,254,744z"/>
<path class="st37" d="M178,581c1,0,2,0,3,0c0.1,3.4,0.1,3.4,0,7c-0.7,0.7-1.3,1.3-2,2C178.7,587,178.3,584.1,178,581z"/>
<path class="st38" d="M271,560c0.7,0.3,1.3,0.7,2,1c-0.7,1.3-1.3,2.6-2,4c0.3,0.3,0.7,0.7,1,1c-1,0.3-2,0.7-3,1
	c-0.7-1.8-0.7-1.8-1-4C269.4,561.2,269.4,561.2,271,560z"/>
<path class="st39" d="M431,717c0.7,0.3,1.3,0.7,2,1c-0.7,1.7-1.3,3.3-2,5c-1,0-2,0-3,0C429.9,718.1,429.9,718.1,431,717z"/>
<path class="st40" d="M612,521c0.3,1,0.7,2,1,3c-0.3,0.7-0.7,1.3-1,2c0.7,0.3,1.3,0.7,2,1c-0.3,0.7-0.7,1.3-1,2c-1,0-2,0-3,0
	C610.9,523.2,610.9,523.2,612,521z"/>
<path class="st41" d="M614,460c0.7,0,1.3,0,2,0c0,1.6,0,3.3,0,5c-1.3,0.3-2.6,0.7-4,1C612.9,461.1,612.9,461.1,614,460z"/>
<path class="st42" d="M614,347c1,0,2,0,3,0c0,0.7,0,1.3,0,2c0.7,0,1.3,0,2,0c0,0.7,0,1.3,0,2c-2.6-0.3-5.3-0.7-8-1c1-0.3,2-0.7,3-1
	C614,348.3,614,347.7,614,347z"/>
<path class="st43" d="M596,312c3.4-0.1,3.4-0.1,7,0c0.7,0.7,1.3,1.3,2,2c-0.3,0.7-0.7,1.3-1,2c-1.3-0.3-2.6-0.7-4-1c0-0.7,0-1.3,0-2
	C598.7,312.7,597.4,312.3,596,312z"/>
</svg>
